<svg xmlns="http://www.w3.org/2000/svg" width="267.493" height="36.486" viewBox="0 0 267.493 36.486"><defs><style>.a{fill:#fff;fill-rule:evenodd;}</style></defs><path class="a" d="M160.62,533.455a5.779,5.779,0,0,1,2.3.387,3.576,3.576,0,0,1,1.384,1.064,3.852,3.852,0,0,1,.7,1.629,4.6,4.6,0,0,1-.069,1.944,6.011,6.011,0,0,1-.719,1.718,7.411,7.411,0,0,1-1.227,1.5,6.85,6.85,0,0,1-2.066,1.321,7,7,0,0,1-2.717.488H152.03l-.812,3.372h-3.6l3.026-12.59a1,1,0,0,1,1.075-.833Zm-1.547,6.753a2.627,2.627,0,0,0,1-.169,2.061,2.061,0,0,0,.7-.467,1.945,1.945,0,0,0,.546-.951,1.362,1.362,0,0,0-.094-1.013,1.024,1.024,0,0,0-.482-.44,2.092,2.092,0,0,0-.9-.156h-6a.315.315,0,0,0-.327.277l-.7,2.919Zm8.8,6.669h6.017a6.284,6.284,0,0,0,3.863-1.021,5.6,5.6,0,0,0,1.881-3.266l2.192-9.135h-3.616l-2.1,8.739a1.5,1.5,0,0,1-1.628,1.251H168.9q-1.294,0-.991-1.251l2.1-8.739H166.4l-2.193,9.135a6.161,6.161,0,0,0-.206,1.936,2.281,2.281,0,0,0,.5,1.33,2.58,2.58,0,0,0,1.276.775,7.647,7.647,0,0,0,2.1.246Zm28.8-2.6a4.464,4.464,0,0,1-.521,1.3,3.4,3.4,0,0,1-.774.89,3.023,3.023,0,0,1-.927.521,3.09,3.09,0,0,1-.992.166,3.715,3.715,0,0,1-1.439-.246,1.969,1.969,0,0,1-.929-.807l-5.325-8.518a.319.319,0,0,0-.27-.18.4.4,0,0,0-.261.1.5.5,0,0,0-.166.277l-2.186,9.092h-3.537l2.552-10.583a4.535,4.535,0,0,1,.576-1.446,3.464,3.464,0,0,1,.872-.976,3.325,3.325,0,0,1,1.126-.545,4.828,4.828,0,0,1,1.293-.171,3.385,3.385,0,0,1,1.533.3,2.738,2.738,0,0,1,1.043,1.035l4.668,7.843a.3.3,0,0,0,.127.13.441.441,0,0,0,.172.029c.186,0,.312-.122.364-.357l2.087-8.68h3.515l-2.6,10.824Zm18.265-10.824H199.558l-.854,3.558H204.6l-2.37,9.865h3.613l2.374-9.865h5.874l.855-3.558Zm3.907,13.423a6.786,6.786,0,0,1-3-.581,4.75,4.75,0,0,1-1.877-1.6,4.992,4.992,0,0,1-.78-2.041,6.438,6.438,0,0,1,.138-2.487,8.224,8.224,0,0,1,1.237-2.74,9.6,9.6,0,0,1,2.12-2.2,8.688,8.688,0,0,1,2.425-1.3,8.85,8.85,0,0,1,2.962-.469h2.82a7.009,7.009,0,0,1,2.738.469,4.645,4.645,0,0,1,1.805,1.3,5.047,5.047,0,0,1,1.055,2.2,6.16,6.16,0,0,1-.084,2.74,7.976,7.976,0,0,1-1.056,2.487,9.2,9.2,0,0,1-4.409,3.643,8.76,8.76,0,0,1-3.275.581Zm2.366-9.865a4.658,4.658,0,0,0-1.564.237,4.338,4.338,0,0,0-2.159,1.669,3.659,3.659,0,0,0-.568,1.271,2.873,2.873,0,0,0-.066,1.16,2.249,2.249,0,0,0,1.293,1.719,3.614,3.614,0,0,0,1.541.279h2.821a4.6,4.6,0,0,0,1.675-.279,4.308,4.308,0,0,0,1.275-.754,4.186,4.186,0,0,0,.847-.964,3.8,3.8,0,0,0,.5-1.16,2.87,2.87,0,0,0,.035-1.271,2.368,2.368,0,0,0-.476-1.032,2.438,2.438,0,0,0-.879-.637,3.682,3.682,0,0,0-1.453-.237Zm24.805-3.558a7,7,0,0,1,2.735.469,4.6,4.6,0,0,1,1.8,1.3,4.953,4.953,0,0,1,1.056,2.2,6.14,6.14,0,0,1-.08,2.74,8.265,8.265,0,0,1-1.051,2.487,9.4,9.4,0,0,1-1.77,2.041,9.215,9.215,0,0,1-2.642,1.6,8.8,8.8,0,0,1-3.28.581h-7.245c-.582,0-.8-.281-.668-.853l2.821-11.737a.993.993,0,0,1,1.071-.833Zm-5.123,3.558a.316.316,0,0,0-.328.277l-1.388,5.778c-.042.187.019.279.192.279h4.271a4.631,4.631,0,0,0,1.675-.279,4.353,4.353,0,0,0,1.272-.754,4.061,4.061,0,0,0,.845-.964,3.685,3.685,0,0,0,.5-1.16,2.888,2.888,0,0,0,.037-1.271,2.212,2.212,0,0,0-1.358-1.669,3.666,3.666,0,0,0-1.453-.237Zm26.962-3.558H255.646a2.162,2.162,0,0,0-2.336,1.807l-2.345,9.751c-.3,1.243.18,1.865,1.439,1.865h11.9l.826-3.432h-9.877c-.217,0-.29-.118-.237-.359l.394-1.628h10.135l.623-2.581H256.035l.366-1.527a.385.385,0,0,1,.4-.338h9.88l.851-3.558Zm10.344,0a5.79,5.79,0,0,1,2.3.387,3.468,3.468,0,0,1,1.38,1.064,3.709,3.709,0,0,1,.7,1.629,4.649,4.649,0,0,1-.068,1.944,6.024,6.024,0,0,1-.72,1.718,7.213,7.213,0,0,1-1.229,1.5,6.828,6.828,0,0,1-2.062,1.321,7.012,7.012,0,0,1-2.722.488h-6.173l-.81,3.372h-3.6l3.03-12.59a.99.99,0,0,1,1.068-.833Zm-1.54,6.753a2.663,2.663,0,0,0,1-.169,2.061,2.061,0,0,0,.7-.467,2,2,0,0,0,.548-.951,1.426,1.426,0,0,0-.092-1.013,1.079,1.079,0,0,0-.488-.44,2.107,2.107,0,0,0-.9-.156h-5.993a.32.32,0,0,0-.331.277l-.7,2.919Zm11,6.669h2.819a8.785,8.785,0,0,0,3.283-.581,9.315,9.315,0,0,0,2.65-1.6,9.43,9.43,0,0,0,1.759-2.041,8.2,8.2,0,0,0,1.053-2.487,6.154,6.154,0,0,0,.085-2.74,4.982,4.982,0,0,0-1.062-2.2,4.544,4.544,0,0,0-1.8-1.3,6.991,6.991,0,0,0-2.735-.469h-2.819a8.823,8.823,0,0,0-2.965.469,8.619,8.619,0,0,0-2.425,1.3,9.457,9.457,0,0,0-2.117,2.2,8.05,8.05,0,0,0-1.235,2.74,6.255,6.255,0,0,0-.14,2.487,4.981,4.981,0,0,0,.779,2.041,4.817,4.817,0,0,0,1.878,1.6,6.765,6.765,0,0,0,2.995.581Zm2.375-9.865h2.821a3.691,3.691,0,0,1,1.453.237,2.216,2.216,0,0,1,1.356,1.669,2.828,2.828,0,0,1-.039,1.271,3.833,3.833,0,0,1-.494,1.16,4.388,4.388,0,0,1-2.124,1.719,4.611,4.611,0,0,1-1.672.279h-2.82a3.594,3.594,0,0,1-1.541-.279,2.234,2.234,0,0,1-.913-.754,2.262,2.262,0,0,1-.384-.964,2.819,2.819,0,0,1,.061-1.16,3.845,3.845,0,0,1,.568-1.271,4.87,4.87,0,0,1,.973-1.032,4.323,4.323,0,0,1,2.756-.873Zm11.783,9.865h-3.594l3.026-12.59a1.013,1.013,0,0,1,1.1-.833h9.533a4.628,4.628,0,0,1,1.978.35,2.782,2.782,0,0,1,1.646,2.124,3.562,3.562,0,0,1-.059,1.439,5.092,5.092,0,0,1-.645,1.539,3.959,3.959,0,0,1-1.293,1.241,1.748,1.748,0,0,1,.738,1.013,3.9,3.9,0,0,1-.116,1.767l-.644,2.682c-.074.291-.127.527-.161.712a5,5,0,0,0-.088.556H309.6a8.741,8.741,0,0,1,.157-.889l.64-2.683a.931.931,0,0,0-.113-.912,1.494,1.494,0,0,0-1.062-.277h-6.259l-1.146,4.761Zm8.235-7.823a1.5,1.5,0,0,0,.643-.118,1.627,1.627,0,0,0,.477-.315,1.416,1.416,0,0,0,.422-.7.843.843,0,0,0-.118-.754.966.966,0,0,0-.881-.357h-6.058a.347.347,0,0,0-.37.3l-.469,1.945Zm21.8-5.6L331,537.013h-5.879l-2.371,9.865h-3.61l2.371-9.865h-5.9l.851-3.558Zm3.931,0h-3.62l-3.223,13.423h3.614l3.23-13.423Zm.351.6a1.559,1.559,0,0,1-.058-.3,2.168,2.168,0,0,1-.015-.3h4.247a3.681,3.681,0,0,0,.025.476l1.779,9.277a.553.553,0,0,0,.173.32.492.492,0,0,0,.3.092.706.706,0,0,0,.34-.085,1.062,1.062,0,0,0,.318-.327l6.2-9.277a2.753,2.753,0,0,0,.278-.476h4.189a3.169,3.169,0,0,1-.163.3c-.056.092-.12.19-.2.3l-7.358,10.642a6.078,6.078,0,0,1-1.961,1.86,5.052,5.052,0,0,1-2.512.6,2.955,2.955,0,0,1-3.292-2.464l-2.288-10.642Zm20.178,12.826h2.817a8.8,8.8,0,0,0,3.283-.581,9.3,9.3,0,0,0,2.645-1.6,9.459,9.459,0,0,0,1.765-2.041,8.181,8.181,0,0,0,1.051-2.487,6.093,6.093,0,0,0,.083-2.74,5.053,5.053,0,0,0-1.058-2.2,4.615,4.615,0,0,0-1.8-1.3,7.033,7.033,0,0,0-2.737-.469h-2.823a8.812,8.812,0,0,0-2.961.469,8.64,8.64,0,0,0-2.426,1.3,9.548,9.548,0,0,0-2.121,2.2,8.114,8.114,0,0,0-1.234,2.74,6.467,6.467,0,0,0-.142,2.487,5.111,5.111,0,0,0,.783,2.041,4.792,4.792,0,0,0,1.88,1.6,6.74,6.74,0,0,0,3,.581Zm2.373-9.865h2.817a3.69,3.69,0,0,1,1.453.237,2.381,2.381,0,0,1,.879.637,2.433,2.433,0,0,1,.48,1.032,2.9,2.9,0,0,1-.039,1.271,3.948,3.948,0,0,1-.5,1.16,4.4,4.4,0,0,1-2.123,1.719,4.623,4.623,0,0,1-1.677.279h-2.818a3.633,3.633,0,0,1-1.544-.279,2.195,2.195,0,0,1-.905-.754,2.226,2.226,0,0,1-.389-.964,2.929,2.929,0,0,1,.064-1.16,3.642,3.642,0,0,1,.575-1.271,4.525,4.525,0,0,1,.967-1.032,4.3,4.3,0,0,1,2.756-.873Z" transform="translate(-100.587 -521.158)"/><g transform="translate(-497.507 -186.879)"><path class="a" d="M500.758,201.072a3.648,3.648,0,1,1-3.652,3.65,3.648,3.648,0,0,1,3.652-3.65Zm-10.943,18.164a18.253,18.253,0,1,1,10.943,3.636,17.9,17.9,0,0,1-3.667-.364v-7.53a10.913,10.913,0,1,0-7.276-10.289v14.548Z" transform="translate(15 0.493)"/></g></svg>